<svg width="15" height="15" viewBox="0 0 15 15" fill="none" xmlns="http://www.w3.org/2000/svg">
<path d="M13.2061 6.68847H8.31153V1.79395C8.31153 1.34761 7.94634 0.982422 7.5 0.982422C7.05366 0.982422 6.68847 1.34761 6.68847 1.79395V6.68847H1.79395C1.34761 6.68847 0.982422 7.05366 0.982422 7.5C0.982422 7.72317 1.07372 7.92605 1.22081 8.07314C1.3679 8.22023 1.57078 8.31153 1.79395 8.31153H6.68847V13.2061C6.68847 13.4292 6.77977 13.6321 6.92686 13.7792C7.07395 13.9263 7.27683 14.0176 7.5 14.0176C7.94634 14.0176 8.31153 13.6524 8.31153 13.2061V8.31153H13.2061C13.6524 8.31153 14.0176 7.94634 14.0176 7.5C14.0176 7.05366 13.6524 6.68847 13.2061 6.68847Z" fill="white"/>
</svg>
