<svg width="18" height="18" viewBox="0 0 18 18" fill="none" xmlns="http://www.w3.org/2000/svg">
<g filter="url(#filter0_b_55_12443)">
<path d="M4.40884 17.6093C1.9778 17.6093 0 15.6323 0 13.2028V8.34625C0 5.916 1.9778 3.93979 4.40884 3.93979H4.58818C4.61085 1.75226 6.3964 -0.00943522 8.58472 3.8027e-05C10.721 3.8027e-05 12.4643 1.68228 12.5617 3.79478L12.5654 3.93979H12.759C15.1909 3.93979 17.1687 5.916 17.1687 8.34625V13.2028C17.1687 15.6323 15.1909 17.6093 12.759 17.6093H4.40884ZM1.32091 8.34625V13.2028C1.32091 14.9041 2.706 16.2884 4.40884 16.2884H12.759C14.4619 16.2884 15.8477 14.9041 15.8477 13.2028V8.34625C15.8477 6.64421 14.4619 5.2607 12.759 5.2607H12.5665V6.65213C12.5665 7.01663 12.2709 7.31219 11.9056 7.31219C11.572 7.31219 11.2955 7.06338 11.2519 6.74167L11.2456 6.65213V5.2607H5.90883V6.65213C5.90883 7.01663 5.61248 7.31219 5.24798 7.31219C4.91359 7.31219 4.63784 7.06338 4.59347 6.74167L4.58792 6.65213V5.2607H4.40884C2.706 5.2607 1.32091 6.64421 1.32091 8.34625ZM11.2452 3.93979C11.2224 2.48885 10.0403 1.32095 8.58235 1.32095C7.16397 1.31461 6.00075 2.41682 5.91359 3.81142L5.90968 3.93979H11.2452ZM8.34067 14.7416L8.33512 14.6584V12.2717H5.94607C5.60693 12.2717 5.33197 11.9968 5.33197 11.6576C5.33197 11.347 5.56335 11.0895 5.86287 11.0491L5.94607 11.0435H8.33512V8.65766C8.33512 8.31852 8.61008 8.04356 8.94922 8.04356C9.26063 8.04356 9.51736 8.27415 9.55778 8.57446L9.56332 8.65766V11.0435H11.9524C12.2915 11.0435 12.5665 11.3185 12.5665 11.6576C12.5665 11.969 12.3359 12.2258 12.0356 12.2662L11.9524 12.2717H9.56332V14.6584C9.56332 14.9976 9.28836 15.2725 8.94922 15.2725C8.63861 15.2725 8.38108 15.0411 8.34067 14.7416Z" fill="white"/>
</g>
<defs>
<filter id="filter0_b_55_12443" x="-9.98147" y="-9.98147" width="37.1316" height="37.5723" filterUnits="userSpaceOnUse" color-interpolation-filters="sRGB">
<feFlood flood-opacity="0" result="BackgroundImageFix"/>
<feGaussianBlur in="BackgroundImageFix" stdDeviation="4.99073"/>
<feComposite in2="SourceAlpha" operator="in" result="effect1_backgroundBlur_55_12443"/>
<feBlend mode="normal" in="SourceGraphic" in2="effect1_backgroundBlur_55_12443" result="shape"/>
</filter>
</defs>
</svg>
