<svg width="15" height="18" viewBox="0 0 15 18" fill="none" xmlns="http://www.w3.org/2000/svg">
<path d="M9.82003 7.2993C9.82003 7.96764 9.55453 8.60861 9.08194 9.08121C8.60935 9.5538 7.96837 9.8193 7.30003 9.8193C6.63168 9.8193 5.99071 9.5538 5.51812 9.08121C5.04553 8.60861 4.78003 7.96764 4.78003 7.2993C4.78003 6.63095 5.04553 5.98998 5.51812 5.51739C5.99071 5.0448 6.63168 4.7793 7.30003 4.7793C7.96837 4.7793 8.60935 5.0448 9.08194 5.51739C9.55453 5.98998 9.82003 6.63095 9.82003 7.2993Z" stroke="#C3C3D5" stroke-linecap="round" stroke-linejoin="round"/>
<path d="M13.6 7.3C13.6 13.2993 7.3 16.75 7.3 16.75C7.3 16.75 1 13.2993 1 7.3C1 5.62914 1.66375 4.02671 2.84523 2.84523C4.02671 1.66375 5.62914 1 7.3 1C8.97086 1 10.5733 1.66375 11.7548 2.84523C12.9363 4.02671 13.6 5.62914 13.6 7.3Z" stroke="#C3C3D5" stroke-linecap="round" stroke-linejoin="round"/>
</svg>
