<svg width="96" height="96" viewBox="0 0 96 96" fill="none" xmlns="http://www.w3.org/2000/svg">
<path d="M47.565 0C21.3375 0 0 21.3375 0 47.565C0 73.7925 21.3375 95.13 47.565 95.13C73.7925 95.13 95.13 73.7925 95.13 47.565C95.13 21.3375 73.7925 0 47.565 0ZM47.565 74.9247C44.8975 74.9247 42.7349 72.7621 42.7349 70.0946C42.7349 67.4271 44.8975 65.2644 47.565 65.2644C50.2325 65.2644 52.3951 67.4271 52.3951 70.0946C52.3951 72.7621 50.2325 74.9247 47.565 74.9247ZM52.3951 50.1301C52.3951 52.7976 50.2325 54.9602 47.565 54.9602C44.8975 54.9602 42.7349 52.7976 42.7349 50.1301V24.6915C42.7349 22.024 44.8975 19.8614 47.565 19.8614C50.2325 19.8614 52.3951 22.024 52.3951 24.6915V50.1301Z" fill="#E53C3C"/>
</svg>
