<svg width="24" height="23" viewBox="0 0 24 23" fill="none" xmlns="http://www.w3.org/2000/svg">
<path d="M1 1H2.563C2.84254 1.0002 3.1142 1.09262 3.33586 1.26294C3.55753 1.43326 3.7168 1.67195 3.789 1.942L4.221 3.563M6.921 13.688C6.47674 13.6879 6.0368 13.7752 5.62631 13.9451C5.21581 14.115 4.8428 14.3641 4.52856 14.6782C4.21433 14.9922 3.96503 15.3651 3.7949 15.7755C3.62477 16.1859 3.53713 16.6257 3.537 17.07H21.299M6.921 13.688L19.572 13.687C20.8447 11.0778 21.947 8.3888 22.872 5.637C16.7813 4.08405 10.5041 3.3857 4.221 3.562L6.921 13.688ZM5.229 20.454C5.229 20.6213 5.17938 20.7849 5.08642 20.924C4.99346 21.0631 4.86134 21.1716 4.70675 21.2356C4.55216 21.2996 4.38206 21.3164 4.21795 21.2837C4.05385 21.2511 3.9031 21.1705 3.78479 21.0522C3.66647 20.9339 3.5859 20.7832 3.55326 20.619C3.52061 20.4549 3.53737 20.2848 3.6014 20.1302C3.66543 19.9757 3.77386 19.8435 3.91299 19.7506C4.05211 19.6576 4.21568 19.608 4.383 19.608C4.60737 19.608 4.82256 19.6971 4.98121 19.8558C5.13987 20.0144 5.229 20.2296 5.229 20.454ZM19.608 20.454C19.608 20.6213 19.5584 20.7849 19.4654 20.924C19.3725 21.0631 19.2403 21.1716 19.0858 21.2356C18.9312 21.2996 18.7611 21.3164 18.597 21.2837C18.4328 21.2511 18.2821 21.1705 18.1638 21.0522C18.0455 20.9339 17.9649 20.7832 17.9323 20.619C17.8996 20.4549 17.9164 20.2848 17.9804 20.1302C18.0444 19.9757 18.1529 19.8435 18.292 19.7506C18.4311 19.6576 18.5947 19.608 18.762 19.608C18.9864 19.608 19.2016 19.6971 19.3602 19.8558C19.5189 20.0144 19.608 20.2296 19.608 20.454Z" stroke="#733168" stroke-width="2" stroke-linecap="round" stroke-linejoin="round"/>
</svg>
