<svg width="17" height="17" viewBox="0 0 17 17" fill="none" xmlns="http://www.w3.org/2000/svg">
<path d="M8.04761 0C3.61028 0 0 3.61028 0 8.04761C0 12.4849 3.61028 16.0952 8.04761 16.0952C12.4849 16.0952 16.0952 12.4849 16.0952 8.04761C16.0952 3.61028 12.4849 0 8.04761 0ZM11.7996 6.53775L7.46632 10.8711C7.28494 11.0525 7.04723 11.1428 6.80951 11.1428C6.5718 11.1428 6.33409 11.0525 6.15271 10.8711L3.98604 8.70442C3.62328 8.34228 3.62328 7.75356 3.98604 7.39142C4.3488 7.02866 4.93628 7.02866 5.29904 7.39142L6.80951 8.90127L10.486 5.22475C10.8488 4.86199 11.4363 4.86199 11.799 5.22475C12.1618 5.5869 12.1618 6.17499 11.7996 6.53775Z" fill="#733168"/>
</svg>
