<svg width="15" height="17" viewBox="0 0 15 17" fill="none" xmlns="http://www.w3.org/2000/svg">
<path d="M3.53564 1.47321C3.53564 0.659214 4.19564 0 5.00886 0H5.3035C6.08494 0 6.83438 0.310426 7.38694 0.862988C7.9395 1.41555 8.24993 2.16498 8.24993 2.94643V4.41964C8.24993 5.23364 8.90992 5.89285 9.72314 5.89285H11.1964C11.9778 5.89285 12.7272 6.20328 13.2798 6.75584C13.8324 7.3084 14.1428 8.05784 14.1428 8.83928V11.4911C14.1428 12.3043 13.4828 12.9643 12.6696 12.9643H5.00886C4.61814 12.9643 4.24342 12.8091 3.96714 12.5328C3.69086 12.2565 3.53564 11.8818 3.53564 11.4911V1.47321Z" fill="#733168"/>
<path d="M9.42856 2.94619C9.42994 1.95505 9.07304 0.996804 8.42363 0.248047C9.73836 0.593733 10.9377 1.28242 11.8989 2.24367C12.8602 3.20492 13.5489 4.40424 13.8946 5.71897C13.1458 5.06957 12.1876 4.71267 11.1964 4.71404H9.7232C9.64506 4.71404 9.57012 4.683 9.51486 4.62774C9.4596 4.57249 9.42856 4.49754 9.42856 4.4194V2.94619ZM1.47321 3.53547H2.35714V11.4908C2.35714 12.1941 2.63652 12.8686 3.13383 13.3659C3.63114 13.8632 4.30563 14.1426 5.00892 14.1426H10.6071V15.0265C10.6071 15.8397 9.94713 16.4997 9.13392 16.4997H1.47321C1.08249 16.4997 0.707775 16.3445 0.431494 16.0683C0.155213 15.792 0 15.4173 0 15.0265V5.00869C0 4.19469 0.659999 3.53547 1.47321 3.53547Z" fill="#733168"/>
</svg>
