<svg width="23" height="27" viewBox="0 0 23 27" fill="none" xmlns="http://www.w3.org/2000/svg">
<path fill-rule="evenodd" clip-rule="evenodd" d="M17.25 3.8288V4.12066C18.9098 4.27338 20.5629 4.49299 22.2052 4.77894C22.3292 4.80056 22.4478 4.84653 22.5541 4.91425C22.6605 4.98197 22.7525 5.0701 22.825 5.17361C22.8975 5.27712 22.949 5.39398 22.9767 5.51753C23.0043 5.64108 23.0074 5.76889 22.9859 5.89366C22.9645 6.01844 22.9188 6.13773 22.8515 6.24474C22.7842 6.35175 22.6966 6.44437 22.5937 6.51731C22.4908 6.59026 22.3747 6.64211 22.2519 6.66989C22.1291 6.69767 22.0021 6.70085 21.8781 6.67924L21.611 6.63424L20.3269 23.4386C20.2528 24.4075 19.8181 25.3125 19.1095 25.9728C18.4009 26.6331 17.4708 26.9999 16.5051 27H6.49623C5.53048 26.9999 4.60033 26.6331 3.89177 25.9728C3.1832 25.3125 2.74844 24.4075 2.6744 23.4386L1.38895 6.63424L1.1219 6.67924C0.997892 6.70085 0.870872 6.69767 0.748087 6.66989C0.625303 6.64211 0.509159 6.59026 0.406287 6.51731C0.198528 6.36999 0.0574415 6.14566 0.0140639 5.89366C-0.0293137 5.64167 0.0285714 5.38266 0.174985 5.17361C0.321399 4.96456 0.544348 4.82259 0.794786 4.77894C2.43707 4.49265 4.09015 4.27304 5.75 4.12066V3.8288C5.75 1.81794 7.29995 0.100219 9.34822 0.0346475C10.7828 -0.0115492 12.2185 -0.0115492 13.6531 0.0346475C15.7013 0.100219 17.25 1.81794 17.25 3.8288ZM9.40956 1.96194C10.8033 1.91709 12.198 1.91709 13.5917 1.96194C14.5539 1.9928 15.3333 2.80794 15.3333 3.8288V3.97409C12.7801 3.81806 10.2199 3.81806 7.66667 3.97409V3.8288C7.66667 2.80794 8.44484 1.9928 9.40956 1.96194ZM8.95595 9.60553C8.95108 9.4789 8.92147 9.35447 8.86882 9.23935C8.81616 9.12423 8.74149 9.02067 8.64906 8.93459C8.55663 8.84851 8.44825 8.7816 8.33012 8.73766C8.21199 8.69372 8.08641 8.67363 7.96056 8.67853C7.83471 8.68342 7.71105 8.71321 7.59664 8.7662C7.48223 8.81918 7.37932 8.89432 7.29377 8.98732C7.20822 9.08033 7.14172 9.18938 7.09805 9.30824C7.05439 9.42711 7.03442 9.55347 7.03928 9.6801L7.48267 21.2516C7.4925 21.5071 7.60282 21.7483 7.78937 21.922C7.88175 22.0081 7.99005 22.0749 8.10811 22.1188C8.22616 22.1627 8.35165 22.1828 8.47742 22.1779C8.60319 22.173 8.72676 22.1432 8.84109 22.0903C8.95542 22.0373 9.05827 21.9623 9.14376 21.8693C9.22925 21.7764 9.29571 21.6674 9.33934 21.5486C9.38297 21.4298 9.40292 21.3035 9.39806 21.177L8.95595 9.60553ZM15.9582 9.6801C15.9675 9.55104 15.951 9.42139 15.9095 9.2989C15.868 9.1764 15.8025 9.06356 15.7168 8.96709C15.631 8.87063 15.5269 8.79251 15.4105 8.7374C15.2942 8.68228 15.168 8.6513 15.0395 8.64629C14.9109 8.64128 14.7827 8.66236 14.6625 8.70825C14.5422 8.75415 14.4324 8.82393 14.3395 8.91344C14.2466 9.00295 14.1726 9.11035 14.1219 9.22925C14.0711 9.34816 14.0446 9.47612 14.0441 9.60553L13.6007 21.177C13.5908 21.4327 13.6824 21.6819 13.8552 21.8698C14.0279 22.0576 14.2678 22.1687 14.5219 22.1786C14.7761 22.1884 15.0238 22.0963 15.2104 21.9225C15.3971 21.7486 15.5075 21.5073 15.5173 21.2516L15.9582 9.6801Z" fill="#E53C3C"/>
</svg>
