<svg width="8" height="8" viewBox="0 0 8 8" fill="none" xmlns="http://www.w3.org/2000/svg">
<path d="M6.594 4C6.594 4.59334 6.41805 5.17336 6.0884 5.66671C5.75876 6.16006 5.29022 6.54458 4.74205 6.77164C4.19387 6.9987 3.59067 7.05811 3.00872 6.94236C2.42678 6.8266 1.89223 6.54088 1.47268 6.12132C1.05312 5.70176 0.767395 5.16721 0.65164 4.58527C0.535884 4.00333 0.595294 3.40013 0.822357 2.85195C1.04942 2.30377 1.43394 1.83524 1.92728 1.50559C2.42063 1.17595 3.00065 1 3.594 1C4.38965 1 5.15271 1.31607 5.71532 1.87868C6.27793 2.44129 6.594 3.20435 6.594 4Z" stroke="#C3C3D5" stroke-linecap="round" stroke-linejoin="round"/>
</svg>
