<svg width="18" height="18" viewBox="0 0 18 18" fill="none" xmlns="http://www.w3.org/2000/svg">
<path d="M16.9032 10.2408L15.8943 9.23187C15.7425 9.07975 15.6161 8.90417 15.5201 8.71187L14.5601 6.79187C14.534 6.73976 14.4958 6.69461 14.4488 6.66012C14.4018 6.62564 14.3473 6.60281 14.2898 6.59352C14.2322 6.58423 14.1733 6.58875 14.1178 6.6067C14.0624 6.62465 14.0119 6.65552 13.9708 6.69676C13.878 6.7894 13.7622 6.85556 13.6353 6.88838C13.5084 6.9212 13.375 6.91949 13.249 6.88343L12.1174 6.56076C11.9364 6.50987 11.7431 6.52513 11.5723 6.60382C11.4015 6.6825 11.2643 6.81947 11.1853 6.99014C11.1064 7.16082 11.0908 7.35405 11.1414 7.53518C11.192 7.71631 11.3054 7.87349 11.4614 7.97854L11.9832 8.32521C12.5076 8.67632 12.5823 9.41854 12.1361 9.86476L11.9583 10.0425C11.7699 10.231 11.665 10.4852 11.665 10.7501V11.1145C11.665 11.4781 11.5672 11.8336 11.3805 12.1439L10.2116 14.0914C10.045 14.3693 9.80923 14.5993 9.52727 14.759C9.24531 14.9187 8.92679 15.0026 8.60275 15.0025C8.35404 15.0025 8.11551 14.9037 7.93964 14.7279C7.76378 14.552 7.66497 14.3135 7.66497 14.0648V13.023C7.66497 12.2052 7.1672 11.4701 6.40809 11.1661L5.82586 10.9341C5.40225 10.7645 5.04936 10.4552 4.82575 10.0575C4.60215 9.65971 4.52126 9.19747 4.59653 8.74743L4.60275 8.71009C4.64407 8.46281 4.73152 8.22551 4.86053 8.01054L4.94053 7.87721C5.15281 7.5237 5.46917 7.24446 5.84629 7.0777C6.22341 6.91094 6.64285 6.86482 7.0472 6.94565L8.09431 7.15543C8.34072 7.20458 8.5966 7.15916 8.81105 7.02822C9.0255 6.89728 9.18279 6.69041 9.25164 6.44876L9.43653 5.79987C9.50058 5.5757 9.48429 5.33619 9.39048 5.12276C9.29666 4.90932 9.13122 4.73537 8.92275 4.63098L8.33164 4.33587L8.25075 4.41676C8.06503 4.60248 7.84455 4.7498 7.6019 4.85031C7.35925 4.95081 7.09917 5.00254 6.83653 5.00254H6.67653C6.4552 5.00254 6.24364 5.09143 6.08809 5.2461C5.94552 5.38995 5.75516 5.47653 5.55304 5.48944C5.35092 5.50235 5.15109 5.4407 4.99138 5.31615C4.83167 5.19161 4.72318 5.01282 4.68645 4.81365C4.64972 4.61447 4.68731 4.40875 4.79209 4.23543L6.04631 2.14387C6.17132 1.93597 6.25746 1.70706 6.30053 1.46832M16.9032 10.2408C17.1185 8.86933 16.9732 7.46547 16.4817 6.16719C15.9901 4.8689 15.1691 3.72088 14.0995 2.83597C13.0298 1.95106 11.7483 1.35973 10.381 1.12009C9.01356 0.880457 7.60734 1.00077 6.30053 1.46921C4.97104 1.94577 3.7914 2.76581 2.88151 3.84597C1.97161 4.92613 1.36389 6.22792 1.12009 7.61905C0.876298 9.01017 1.00513 10.441 1.49348 11.7663C1.98184 13.0915 2.81231 14.2638 3.90052 15.164C4.98872 16.0643 6.29586 16.6604 7.68909 16.8919C9.08233 17.1233 10.512 16.9818 11.8328 16.4817C13.1536 15.9815 14.3185 15.1407 15.2091 14.0445C16.0996 12.9484 16.6842 11.636 16.9032 10.2408Z" stroke="#C3C3D5" stroke-linecap="round" stroke-linejoin="round"/>
</svg>
