<svg width="92" height="96" viewBox="0 0 92 96" fill="none" xmlns="http://www.w3.org/2000/svg">
<path d="M88.4199 33.2707C96.7381 53.0022 89.3064 76.2538 71.312 87.8044C44.406 105.176 8.5131 90.0658 1.26528 59.0435C-4.77218 33.2958 11.3885 7.51545 37.1297 1.35514C48.2568 -1.32445 60.2898 -0.0111726 70.5695 5.12611C73.9544 6.76953 75.3538 10.8653 73.678 14.2353C72.0137 17.5871 67.9471 18.9551 64.5953 17.2908C60.8409 15.1713 56.7239 13.6821 52.4204 12.9975C47.187 12.1394 41.6994 12.4678 36.5645 13.8772C15.2096 19.9752 3.93757 42.9741 11.6335 63.6977C18.1347 81.4643 37.1326 92.0294 55.7077 88.6005C75.0506 85.1949 89.3234 67.819 89.2356 48.2014C89.2409 43.3653 88.4091 38.5097 86.7489 33.9232C86.3774 32.8309 87.9423 32.2129 88.4199 33.2707Z" fill="#02BC77"/>
<path d="M91.1927 9.64296C90.1921 8.74595 88.6537 8.82988 87.7567 9.83053C87.7567 9.83053 52.1417 49.5564 44.3073 58.2951L29.8832 47.5744C26.4718 45.1303 22.2738 49.2499 24.7199 52.7175L40.0716 73.5423C42.679 77.2079 48.5023 77.1062 50.9505 73.3046L51.2503 72.8584L91.5881 12.8118C92.2556 11.8201 92.1077 10.4633 91.1927 9.64296Z" fill="#02BC77"/>
</svg>
