<svg width="10" height="10" viewBox="0 0 10 10" fill="none" xmlns="http://www.w3.org/2000/svg">
<path d="M9.35862 7.97827L6.08542 4.71029L9.35862 1.44231C9.65711 1.1443 9.65711 0.656637 9.35862 0.358624C9.06013 0.0606112 8.5717 0.0606118 8.27321 0.358624L5 3.62661L1.72679 0.358625C1.4283 0.0606119 0.939865 0.0606115 0.641377 0.358624C0.492131 0.507631 0.417508 0.704049 0.417509 0.900466C0.41751 1.09688 0.492132 1.2933 0.641376 1.44231L3.91458 4.71029L0.641376 7.97827C0.492132 8.12728 0.417507 8.3237 0.417511 8.52011C0.41751 8.71653 0.492132 8.91295 0.641375 9.06196C0.939864 9.35997 1.4283 9.35997 1.72679 9.06196L5 5.79398L8.27321 9.06196C8.5717 9.35997 9.06014 9.35997 9.35863 9.06196C9.65711 8.76395 9.65711 8.27629 9.35862 7.97827Z" fill="#C4C4C4"/>
</svg>
