<svg width="16" height="16" viewBox="0 0 16 16" fill="none" xmlns="http://www.w3.org/2000/svg">
<path d="M8 0C3.58182 0 0 3.58182 0 8C0 12.4182 3.58182 16 8 16C12.4182 16 16 12.4182 16 8C16 3.58182 12.4182 0 8 0ZM8 11.6364C4.23127 11.6364 2.35855 8.49964 2.28073 8.36655C2.14909 8.13964 2.14909 7.86036 2.28073 7.63346C2.35855 7.50036 4.23127 4.36364 8 4.36364C11.7687 4.36364 13.6415 7.50036 13.7193 7.63345C13.8509 7.86036 13.8509 8.13964 13.7193 8.36655C13.6415 8.50037 11.7687 11.6364 8 11.6364ZM10.1818 8C10.1818 9.20509 9.20509 10.1818 8 10.1818C6.79491 10.1818 5.81818 9.20509 5.81818 8C5.81818 6.79491 6.79491 5.81818 8 5.81818C9.20509 5.81818 10.1818 6.79491 10.1818 8Z" fill="#F6C344"/>
</svg>
