<svg width="20" height="18" viewBox="0 0 20 18" fill="none" xmlns="http://www.w3.org/2000/svg">
<path d="M19 5.50086C18.9737 4.2829 18.4654 3.12508 17.5865 2.28145C16.7077 1.43782 15.53 0.977275 14.312 1.00086C13.4063 0.992517 12.5176 1.24602 11.7526 1.73087C10.9876 2.21573 10.379 2.91128 10 3.73386C9.62093 2.91113 9.01217 2.21547 8.24699 1.7306C7.48182 1.24573 6.59282 0.992324 5.687 1.00086C4.46915 0.977543 3.29177 1.43821 2.41311 2.28181C1.53445 3.12541 1.02626 4.28307 1 5.50086C1 12.7209 10 17.5009 10 17.5009C10 17.5009 19 12.7209 19 5.50086Z" stroke="#C3C3D5" stroke-linecap="round" stroke-linejoin="round"/>
</svg>
