<svg width="17" height="14" viewBox="0 0 17 14" fill="none" xmlns="http://www.w3.org/2000/svg">
<path d="M8.12012 14C8.3479 14 8.5675 13.9188 8.73865 13.7714C9.38501 13.2156 10.0082 12.6932 10.558 12.2324L10.5608 12.23C12.1727 10.879 13.5647 9.71231 14.5332 8.563C15.6158 7.27816 16.1201 6.05995 16.1201 4.72913C16.1201 3.43613 15.6693 2.24325 14.8508 1.37008C14.0226 0.486587 12.8861 0 11.6504 0C10.7268 0 9.88098 0.287174 9.13647 0.853478C8.76074 1.13933 8.42016 1.48918 8.12012 1.89725C7.81995 1.48918 7.47949 1.13933 7.10364 0.853478C6.35913 0.287173 5.51331 0 4.58972 0C3.35413 0 2.21753 0.486587 1.38928 1.37008C0.570801 2.24325 0.120117 3.43613 0.120117 4.72913C0.120117 6.05996 0.624268 7.27817 1.70691 8.56288C2.67542 9.7123 4.06726 10.8789 5.67894 12.2298C6.22972 12.6913 6.85387 13.2145 7.5017 13.7716C7.67272 13.9188 7.89246 14 8.12012 14Z" fill="#E22E2E"/>
</svg>
