<svg width="20" height="20" viewBox="0 0 20 20" fill="none" xmlns="http://www.w3.org/2000/svg">
<path d="M9.91479 6.30942C7.92282 6.30942 6.30939 7.92282 6.30939 9.91481C6.30939 11.9068 7.92282 13.5202 9.91479 13.5202C11.9068 13.5202 13.5202 11.9068 13.5202 9.91481C13.5202 7.92282 11.9068 6.30942 9.91479 6.30942ZM17.9728 9.01346C17.5582 5.25484 14.5748 2.27137 10.8161 1.85677V0H9.01346V1.85677C5.25484 2.27139 2.27137 5.25484 1.85677 9.01346H0V10.8161H1.85677C2.27139 14.5748 5.25484 17.5582 9.01346 17.9728V19.8296H10.8161V17.9728C14.5748 17.5582 17.5582 14.5748 17.9728 10.8161H19.8296V9.01346L17.9728 9.01346ZM9.91479 16.2242C6.43108 16.2242 3.60535 13.3985 3.60535 9.91481C3.60535 6.4311 6.43108 3.60537 9.91479 3.60537C13.3985 3.60537 16.2242 6.4311 16.2242 9.91481C16.2242 13.3985 13.3985 16.2242 9.91479 16.2242Z" fill="#C3C3D5"/>
</svg>
