<svg width="17" height="19" viewBox="0 0 17 19" fill="none" xmlns="http://www.w3.org/2000/svg">
<path fill-rule="evenodd" clip-rule="evenodd" d="M8.04072 17.9094L8.1096 17.9451L8.13716 17.9593C8.35913 18.068 8.62666 18.068 8.84862 17.9593L8.87618 17.946L8.94604 17.9094C9.33092 17.7028 9.70647 17.4823 10.0718 17.2483C11.0175 16.6438 11.9012 15.9633 12.712 15.2151C14.625 13.4421 16.6118 10.7781 16.6118 7.35053C16.6118 3.29094 12.977 -7.15256e-07 8.49338 0C4.00972 0 0.374998 3.29095 0.375 7.35053C0.375 10.7772 2.36277 13.4421 4.27478 15.2151C5.08528 15.9633 5.96859 16.6438 6.91399 17.2484C7.27963 17.4823 7.65551 17.7028 8.04072 17.9094ZM8.49338 10.0234C10.1238 10.0234 11.4455 8.82674 11.4455 7.35053C11.4455 5.87431 10.1238 4.67761 8.49338 4.67761C6.86296 4.67761 5.54124 5.87431 5.54124 7.35053C5.54124 8.82674 6.86296 10.0234 8.49338 10.0234Z" fill="#733168"/>
</svg>
