<svg width="13" height="17" viewBox="0 0 13 17" fill="none" xmlns="http://www.w3.org/2000/svg">
<path d="M9.42695 7.34615V4.46154C9.42695 3.54348 9.07928 2.66303 8.46041 2.01386C7.84154 1.3647 7.00217 1 6.12695 1C5.25174 1 4.41237 1.3647 3.7935 2.01386C3.17463 2.66303 2.82695 3.54348 2.82695 4.46154V7.34615M2.27695 16H9.97695C10.4146 16 10.8342 15.8177 11.1437 15.4931C11.4531 15.1685 11.627 14.7283 11.627 14.2692V9.07692C11.627 8.61789 11.4531 8.17767 11.1437 7.85308C10.8342 7.5285 10.4146 7.34615 9.97695 7.34615H2.27695C1.83935 7.34615 1.41966 7.5285 1.11023 7.85308C0.800792 8.17767 0.626953 8.61789 0.626953 9.07692V14.2692C0.626953 14.7283 0.800792 15.1685 1.11023 15.4931C1.41966 15.8177 1.83935 16 2.27695 16Z" stroke="#C3C3D5" stroke-linecap="round" stroke-linejoin="round"/>
</svg>
