<svg width="147" height="159" viewBox="0 0 147 159" fill="none" xmlns="http://www.w3.org/2000/svg">
<path opacity="0.2" d="M63.1096 158.033C46.2987 158.033 34.6569 149.105 28.5133 131.504L17.9777 101.444C17.0877 98.8977 16.7751 96.1852 17.0625 93.503C15.1147 92.8037 13.2766 91.8304 11.6037 90.6123C8.58667 88.2953 6.07571 85.3855 4.22533 82.0618C2.37495 78.7382 1.22431 75.071 0.844226 71.286C-0.0738423 67.7805 -0.241 64.1207 0.3537 60.5461C0.948401 56.9715 2.29154 53.5629 4.29515 50.5435C6.29876 47.5241 8.91764 44.962 11.9803 43.0251C15.0429 41.0882 18.4801 39.8201 22.0669 39.3039L35.9804 19.4443C38.122 16.3866 41.2374 14.1458 44.8174 13.0881C48.3975 12.0303 52.2304 12.2183 55.6898 13.6211C59.1493 15.024 62.0305 17.5589 63.8626 20.8114C65.6948 24.0639 66.3695 27.8417 65.7764 31.5273L70.7808 30.645C68.9643 27.382 68.3084 23.5994 68.9202 19.9153C69.532 16.2312 71.3753 12.8637 74.1489 10.3629C76.9226 7.86224 80.4624 6.37632 84.19 6.14806C87.9175 5.91979 91.6122 6.96268 94.6703 9.10626L114.484 22.9803C116.25 22.7178 118.032 22.5836 119.817 22.5787C126.226 22.5022 132.427 24.8536 137.173 29.1604C141.92 33.4672 144.861 39.4105 145.406 45.7965C147.967 60.3356 142.811 68.2439 137.339 72.4779C138.542 75.029 139.139 77.8232 139.084 80.643L138.558 113.205C138.426 122.878 138.11 145.588 106.174 151.218L72.3875 157.177C69.3253 157.73 66.2211 158.016 63.1096 158.033Z" fill="#1A1A1A"/>
<path d="M63.1097 151.916C46.2988 151.916 34.657 142.994 28.5134 125.386L17.9778 95.327C17.0789 92.7825 16.7573 90.0699 17.0362 87.3858C15.0885 86.6866 13.2504 85.7132 11.5775 84.4951C8.56758 82.1779 6.06294 79.2701 4.21726 75.9502C2.37158 72.6302 1.22379 68.9681 0.84433 65.1886C-0.0769654 61.6822 -0.246567 58.0206 0.346649 54.4441C0.939865 50.8675 2.2825 47.4568 4.28648 44.4356C6.29046 41.4144 8.91051 38.851 11.9748 36.9135C15.0391 34.976 18.4783 33.7082 22.067 33.1933L35.9805 13.3337C38.1047 10.2438 41.2202 7.97158 44.8114 6.89312C48.4027 5.81466 52.2545 5.99454 55.7296 7.40301C59.2047 8.81148 62.0948 11.3641 63.9218 14.6386C65.7487 17.9131 66.4031 21.7132 65.7765 25.4101L70.7809 24.5278C68.9644 21.2648 68.3085 17.4822 68.9203 13.7981C69.5321 10.1141 71.3754 6.74647 74.149 4.24576C76.9227 1.74505 80.4626 0.259135 84.1901 0.0308677C87.9176 -0.197399 91.6123 0.845487 94.6704 2.98907L114.484 16.8631C116.25 16.6039 118.032 16.4697 119.818 16.4615C126.227 16.3852 132.429 18.7374 137.175 23.0456C141.922 27.3538 144.862 33.2987 145.406 39.6859C147.967 54.2184 142.811 62.1267 137.34 66.3607C138.542 68.9118 139.139 71.7061 139.085 74.5258L138.558 107.094C138.426 116.76 138.11 139.471 106.174 145.101L72.3876 151.027C69.3264 151.591 66.2222 151.888 63.1097 151.916Z" fill="#F2F2F2"/>
<path d="M133.356 41.8061C135.147 51.9466 131.907 56.2135 127.133 58.268C125.449 58.948 123.693 59.4341 121.898 59.7166L29.837 75.948C28.0211 76.3256 26.1656 76.4782 24.3124 76.4024C22.3314 76.3823 20.4047 75.7523 18.7944 74.5982C17.0753 73.1752 15.6635 71.4176 14.6447 69.4322C13.626 67.4467 13.0215 65.2748 12.8681 63.0485C10.1552 47.6402 21.4283 45.6516 26.7949 44.7034L29.2246 44.2754L45.996 20.3464C46.3139 19.8786 46.7217 19.4787 47.1955 19.17C47.6694 18.8612 48.1999 18.6497 48.7562 18.5478C49.3126 18.4459 49.8836 18.4556 50.4362 18.5764C50.9887 18.6972 51.5117 18.9266 51.9748 19.2513C52.4379 19.576 52.8318 19.9896 53.1336 20.4679C53.4354 20.9462 53.6391 21.4798 53.7329 22.0375C53.8267 22.5953 53.8086 23.1661 53.6798 23.7169C53.5509 24.2676 53.3139 24.7872 52.9824 25.2455L41.1299 42.1814L99.6946 31.8566L82.7586 20.004C81.8304 19.3535 81.1987 18.3609 81.0023 17.2446C80.806 16.1282 81.0611 14.9796 81.7117 14.0514C82.3622 13.1232 83.3548 12.4914 84.4711 12.2951C85.5875 12.0988 86.7361 12.3539 87.6643 13.0044L111.567 29.7429L113.997 29.3083C119.376 28.3798 130.636 26.3978 133.356 41.8061ZM126.857 74.3216L126.323 106.89C126.165 118.657 124.348 129.475 104.047 133.058L70.2542 138.984C50.1971 142.52 43.5794 131.385 40.0631 121.324L29.5275 91.2576C29.2331 90.4197 29.1251 89.5277 29.2109 88.6438C29.2968 87.7599 29.5745 86.9053 30.0247 86.1398C30.4748 85.3743 31.0866 84.7162 31.8173 84.2115C32.548 83.7068 33.3801 83.3676 34.2554 83.2176L119.666 68.1583C120.559 67.9953 121.477 68.0336 122.353 68.2704C123.229 68.5072 124.041 68.9365 124.73 69.527C125.419 70.1176 125.967 70.8544 126.335 71.6839C126.703 72.5134 126.881 73.4145 126.857 74.3216ZM106.273 90.744C106.224 90.1022 106.041 89.4777 105.737 88.9108C105.432 88.3439 105.012 87.8471 104.503 87.4524C103.995 87.0577 103.41 86.7738 102.785 86.619C102.16 86.4643 101.51 86.4421 100.876 86.5539C100.242 86.6657 99.6388 86.909 99.1047 87.2682C98.5706 87.6273 98.1176 88.0943 97.7749 88.6392C97.4323 89.184 97.2075 89.7946 97.1151 90.4315C97.0227 91.0685 97.0648 91.7177 97.2385 92.3375C97.622 94.5127 97.5733 96.7421 97.0952 98.8985C96.6171 101.055 95.7189 103.096 94.452 104.905C93.1851 106.715 91.5742 108.257 89.7113 109.443C87.8485 110.63 85.7701 111.438 83.5949 111.822C81.4197 112.205 79.1903 112.157 77.0339 111.678C74.8775 111.2 72.8364 110.302 71.0271 109.035C67.3731 106.477 64.8852 102.571 64.1106 98.1781C63.8019 97.0768 63.0947 96.1296 62.1264 95.5207C61.1582 94.9117 59.9982 94.6845 58.8718 94.8832C57.7454 95.0819 56.7331 95.6922 56.0316 96.5957C55.3302 97.4991 54.9897 98.6311 55.0764 99.7716C56.2735 106.561 60.1186 112.596 65.7657 116.55C68.5618 118.508 71.7162 119.896 75.0488 120.635C78.3814 121.374 81.8268 121.449 85.1884 120.856C88.55 120.263 91.7619 119.014 94.6408 117.18C97.5197 115.346 100.009 112.963 101.967 110.167C103.925 107.371 105.313 104.216 106.052 100.884C106.79 97.551 106.866 94.1056 106.273 90.744Z" fill="#733168"/>
</svg>
