<svg width="16" height="16" viewBox="0 0 16 16" fill="none" xmlns="http://www.w3.org/2000/svg">
<path d="M8 0C3.58187 0 0 3.58187 0 8C0 12.4181 3.58187 16 8 16C12.4181 16 16 12.4181 16 8C16 3.58187 12.4181 0 8 0ZM7.1825 4.4425C7.1825 4.22569 7.26863 4.01775 7.42194 3.86444C7.57525 3.71113 7.78319 3.625 8 3.625C8.21681 3.625 8.42475 3.71113 8.57806 3.86444C8.73137 4.01775 8.8175 4.22569 8.8175 4.4425V7.00938C8.8175 7.22619 8.73137 7.43412 8.57806 7.58743C8.42475 7.74075 8.21681 7.82688 8 7.82688C7.78319 7.82688 7.57525 7.74075 7.42194 7.58743C7.26863 7.43412 7.1825 7.22619 7.1825 7.00938V4.4425ZM7.95 12.375C7.13324 12.3649 6.33889 12.1065 5.67254 11.6341C5.0062 11.1617 4.49942 10.4976 4.21958 9.73026C3.93975 8.96286 3.90011 8.12848 4.10594 7.33801C4.31177 6.54755 4.75331 5.83846 5.37187 5.305C5.74094 4.98625 6.315 5.12906 6.50031 5.58C6.55726 5.72004 6.5688 5.87443 6.53331 6.02139C6.49782 6.16834 6.41709 6.30045 6.3025 6.39906C5.90393 6.74515 5.62067 7.20479 5.49067 7.7164C5.36068 8.228 5.39017 8.76711 5.57519 9.26148C5.76021 9.75585 6.09192 10.1819 6.52586 10.4824C6.95981 10.783 7.47524 10.9437 8.0031 10.943C8.53096 10.9424 9.04601 10.7805 9.47924 10.4789C9.91246 10.1773 10.2431 9.75048 10.427 9.25567C10.6108 8.76086 10.639 8.22167 10.5078 7.71038C10.3766 7.1991 10.0922 6.74013 9.69281 6.395C9.57926 6.29654 9.49955 6.16486 9.46495 6.0186C9.43034 5.87234 9.44261 5.71891 9.5 5.58C9.54327 5.47484 9.61088 5.38145 9.69727 5.3075C9.78366 5.23355 9.88636 5.18115 9.99694 5.15461C10.1075 5.12807 10.2228 5.12815 10.3334 5.15484C10.4439 5.18152 10.5465 5.23406 10.6328 5.30813C11.2568 5.84777 11.6998 6.56616 11.9019 7.36598C12.1039 8.16581 12.0553 9.00842 11.7625 9.77967C11.4697 10.5509 10.9469 11.2135 10.265 11.6778C9.58304 12.142 8.77489 12.3854 7.95 12.375Z" fill="#733168"/>
</svg>
