<svg width="127" height="96" viewBox="0 0 127 96" fill="none" xmlns="http://www.w3.org/2000/svg">
<g clip-path="url(#clip0_96_4076)">
<mask id="mask0_96_4076" style="mask-type:luminance" maskUnits="userSpaceOnUse" x="3" y="20" width="121" height="56">
<path d="M3.57178 20.2715H123.46V75.7595H3.57178V20.2715Z" fill="white"/>
</mask>
<g mask="url(#mask0_96_4076)">
<mask id="mask1_96_4076" style="mask-type:luminance" maskUnits="userSpaceOnUse" x="3" y="20" width="121" height="56">
<path d="M3.55201 20.084L123.693 20.243L123.564 75.923L3.42236 75.764L3.55201 20.084Z" fill="white"/>
</mask>
<g mask="url(#mask1_96_4076)">
<mask id="mask2_96_4076" style="mask-type:luminance" maskUnits="userSpaceOnUse" x="-83" y="-60" width="263" height="280">
<path d="M-81.6267 -59.8809L179.231 -59.5359L178.587 219.631L-82.271 219.287L-81.6267 -59.8809Z" fill="white"/>
</mask>
<g mask="url(#mask2_96_4076)">
<path d="M-20.0607 210.3L143.907 210.517L144.505 -48.2791L-19.4627 -48.4961L-20.0607 210.3Z" stroke="#2C2C2B" stroke-width="0.978442"/>
</g>
</g>
</g>
<mask id="mask3_96_4076" style="mask-type:luminance" maskUnits="userSpaceOnUse" x="8" y="20" width="88" height="30">
<path d="M8.12793 20.7363H95.5039V49.9203H8.12793V20.7363Z" fill="white"/>
</mask>
<g mask="url(#mask3_96_4076)">
<mask id="mask4_96_4076" style="mask-type:luminance" maskUnits="userSpaceOnUse" x="3" y="20" width="121" height="56">
<path d="M3.55201 20.084L123.693 20.243L123.564 75.923L3.42236 75.764L3.55201 20.084Z" fill="white"/>
</mask>
<g mask="url(#mask4_96_4076)">
<mask id="mask5_96_4076" style="mask-type:luminance" maskUnits="userSpaceOnUse" x="-83" y="-60" width="263" height="280">
<path d="M-81.6267 -59.8809L179.231 -59.5359L178.587 219.631L-82.271 219.287L-81.6267 -59.8809Z" fill="white"/>
</mask>
<g mask="url(#mask5_96_4076)">
<path fill-rule="evenodd" clip-rule="evenodd" d="M8.29198 49.7107C8.85158 45.2407 10.7288 40.7287 15.6157 37.9527C18.8211 36.1317 22.6721 35.4437 26.6303 35.4487L46.0044 35.4747C47.6183 35.4767 49.2323 35.4787 50.8476 35.4807L65.3772 35.4997C67.5758 35.5027 69.801 35.4947 71.9878 35.3037C74.242 35.1057 76.4526 34.7057 78.6473 34.2767C82.9799 33.4297 86.8428 31.0307 89.8696 28.6197C92.5274 26.5027 94.9113 23.8937 95.2962 20.9307L93.2484 20.9277C92.1583 22.3737 90.76 23.7057 89.2399 24.9157C85.8083 27.6497 81.5339 30.2317 76.6286 31.1907C74.3016 31.6467 71.9653 32.0647 69.5748 32.2737C67.2703 32.4757 64.9393 32.4877 62.6228 32.4847L48.0919 32.4657C46.478 32.4637 44.8627 32.4617 43.2487 32.4587L23.8746 32.4337C20.5647 32.4297 17.3063 32.9687 14.6208 34.4947C9.35561 37.4857 8.27611 43.1317 8.26552 47.7787C8.26552 47.8117 8.2642 47.8397 8.26023 47.8717C8.19409 48.4477 8.24568 49.1207 8.29198 49.7107Z" fill="#EF7E20"/>
</g>
</g>
</g>
<mask id="mask6_96_4076" style="mask-type:luminance" maskUnits="userSpaceOnUse" x="49" y="22" width="68" height="53">
<path d="M49.7839 22.5273H116.501V74.2393H49.7839V22.5273Z" fill="white"/>
</mask>
<g mask="url(#mask6_96_4076)">
<mask id="mask7_96_4076" style="mask-type:luminance" maskUnits="userSpaceOnUse" x="3" y="20" width="121" height="56">
<path d="M3.55201 20.082L123.693 20.241L123.564 75.921L3.42236 75.762L3.55201 20.082Z" fill="white"/>
</mask>
<g mask="url(#mask7_96_4076)">
<mask id="mask8_96_4076" style="mask-type:luminance" maskUnits="userSpaceOnUse" x="-83" y="-60" width="263" height="280">
<path d="M-81.6267 -59.8828L179.231 -59.5378L178.587 219.629L-82.271 219.285L-81.6267 -59.8828Z" fill="white"/>
</mask>
<g mask="url(#mask8_96_4076)">
<path fill-rule="evenodd" clip-rule="evenodd" d="M65.1866 40.9531L54.9829 40.9391L54.9194 68.5311C54.9128 71.2871 53.156 73.0961 50.0643 73.6451L50.063 74.2151L52.7432 74.2181C61.2562 74.2291 65.1165 71.3231 65.131 64.8821L65.135 63.2461L116.332 63.3141L116.362 50.2981C116.377 43.8971 112.45 41.0151 104.015 41.0041L96.0264 40.8861C102.714 37.8821 106.529 35.6381 112.032 29.2611C113.593 27.4521 115.498 24.9441 116.176 22.5931L106.087 22.5801C105.443 26.4461 102.611 29.8071 99.0599 32.6351C95.1943 35.7141 90.449 38.5081 84.9258 39.5881C83.0129 39.9621 81.0788 40.3141 79.1367 40.5881C78.4806 40.6811 77.8006 40.7691 77.118 40.8371L77.1008 48.6101L106.161 48.6491L106.145 55.5831L65.1535 55.5291L65.1866 40.9531Z" fill="#713067"/>
</g>
</g>
</g>
<mask id="mask9_96_4076" style="mask-type:luminance" maskUnits="userSpaceOnUse" x="9" y="40" width="36" height="35">
<path d="M9.48267 40.7031H44.3653V74.2391H9.48267V40.7031Z" fill="white"/>
</mask>
<g mask="url(#mask9_96_4076)">
<mask id="mask10_96_4076" style="mask-type:luminance" maskUnits="userSpaceOnUse" x="3" y="20" width="121" height="56">
<path d="M3.55201 20.082L123.693 20.241L123.564 75.921L3.42236 75.762L3.55201 20.082Z" fill="white"/>
</mask>
<g mask="url(#mask10_96_4076)">
<mask id="mask11_96_4076" style="mask-type:luminance" maskUnits="userSpaceOnUse" x="-83" y="-60" width="263" height="280">
<path d="M-81.6267 -59.8828L179.231 -59.5378L178.587 219.629L-82.271 219.285L-81.6267 -59.8828Z" fill="white"/>
</mask>
<g mask="url(#mask11_96_4076)">
<path fill-rule="evenodd" clip-rule="evenodd" d="M14.5241 64.2774L14.5149 68.4764C14.5083 71.2314 12.7514 73.0404 9.65977 73.5894L9.65845 74.1594L12.3387 74.1634C20.8516 74.1744 24.7119 71.2684 24.7278 64.8264L24.7318 63.1914L27.1858 63.1944L30.4494 63.1984L38.6965 63.2094C41.6717 63.2134 44.1085 61.3764 44.1138 59.1274L44.1284 53.1534L44.131 51.6484L44.1561 40.9234L26.9463 40.9004C24.3547 40.8974 21.734 41.2764 19.6227 42.4754C15.3007 44.9304 14.5572 50.0634 14.5479 53.8244L14.5241 64.2774ZM33.9366 47.6584L33.9274 51.5374L33.9234 53.1284L33.9221 54.1774C33.9194 54.8974 33.1402 55.4854 32.1877 55.4834L31.2392 55.4824L29.5644 55.4804L24.749 55.4744L24.7542 52.9454C24.7622 49.6004 27.3498 47.6504 31.7736 47.6564L33.9366 47.6584Z" fill="#713067"/>
</g>
</g>
</g>
</g>
<defs>
<clipPath id="clip0_96_4076">
<rect width="127" height="96" fill="white"/>
</clipPath>
</defs>
</svg>
