<svg width="21" height="21" viewBox="0 0 21 21" fill="none" xmlns="http://www.w3.org/2000/svg">
<path d="M18.842 7.81761H17.4347V5.86305C17.4347 5.2164 16.9086 4.69031 16.262 4.69031H15.1839L17.873 2.00126C18.3302 1.54405 18.3302 0.800105 17.873 0.342894C17.4158 -0.114278 16.6718 -0.114318 16.2146 0.342894L11.1801 5.37777V3.51757C11.1801 2.87093 10.654 2.34484 10.0074 2.34484H7.66189C7.01524 2.34484 6.48915 2.87093 6.48915 3.51757V4.7692C6.23184 4.71678 5.96992 4.69035 5.70732 4.69031C3.82993 4.69031 2.24106 6.01206 1.87661 7.81761H1.17274C0.52609 7.81761 0 8.3437 0 8.99035V10.0067C0 10.5364 0.353033 10.9849 0.836084 11.13L2.23493 19.0513C2.33645 19.6091 2.82172 20.0141 3.38886 20.0141H16.6259C17.193 20.0141 17.6784 19.6092 17.7802 19.0493L19.1787 11.13C19.6617 10.9849 20.0147 10.5363 20.0147 10.0067V8.99035C20.0147 8.3437 19.4886 7.81761 18.842 7.81761ZM16.262 5.47214C16.4775 5.47214 16.6529 5.6475 16.6529 5.86305V7.81761H12.0566L14.4021 5.47214H16.262ZM16.7675 0.895762C16.9198 0.743384 17.1677 0.743345 17.3201 0.895762C17.4725 1.0481 17.4725 1.29606 17.3201 1.44843L10.2837 8.48486C10.2105 8.55826 10.111 8.59952 10.0074 8.59952C9.90368 8.59952 9.80425 8.55826 9.73103 8.48486C9.65763 8.41164 9.61638 8.31223 9.61637 8.20855C9.61637 8.10485 9.65761 8.00543 9.73101 7.93221L16.7675 0.895762ZM7.27097 3.51757C7.27097 3.30198 7.44634 3.12666 7.66189 3.12666H10.0074C10.2229 3.12666 10.3983 3.30202 10.3983 3.51757V6.15963L9.35665 7.20091C8.98391 6.23465 8.23383 5.43695 7.27097 5.01602V3.51757ZM5.70732 5.47214C7.16128 5.47214 8.38535 6.46654 8.73569 7.81761H2.67806C3.02648 6.45384 4.25977 5.47214 5.70732 5.47214ZM19.2329 10.0067C19.2329 10.2223 19.0575 10.3976 18.842 10.3976H11.571C11.3551 10.3976 11.1801 10.5726 11.1801 10.7885C11.1801 11.0044 11.3551 11.1795 11.571 11.1795H18.376L17.0106 18.9113C16.9768 19.0972 16.8148 19.2324 16.6259 19.2323L3.38882 19.2323C3.19974 19.2323 3.03794 19.0973 3.00444 18.9133L1.63874 11.1795H8.44371C8.65961 11.1795 8.83462 11.0044 8.83462 10.7885C8.83462 10.5726 8.65961 10.3976 8.44371 10.3976H1.17274C0.957189 10.3976 0.781825 10.2223 0.781825 10.0067V8.99035C0.781825 8.7748 0.957189 8.59944 1.17274 8.59944H8.9012C8.95955 8.76442 9.05422 8.91419 9.1782 9.03769C9.63662 9.49607 10.378 9.49619 10.8365 9.03769L11.2748 8.59944H18.842C19.0575 8.59944 19.2329 8.7748 19.2329 8.99035V10.0067Z" fill="#C3C3D5"/>
<path d="M10.0077 12.7439C9.79175 12.7439 9.61673 12.9189 9.61673 13.1348V17.2785C9.61673 17.4944 9.79175 17.6694 10.0077 17.6694C10.2236 17.6694 10.3986 17.4944 10.3986 17.2785V13.1348C10.3986 12.9189 10.2236 12.7439 10.0077 12.7439ZM12.3531 12.7439C12.1372 12.7439 11.9622 12.9189 11.9622 13.1348V17.2785C11.9622 17.4944 12.1372 17.6694 12.3531 17.6694C12.569 17.6694 12.744 17.4944 12.744 17.2785V13.1348C12.744 12.9189 12.569 12.7439 12.3531 12.7439ZM14.6986 12.7439C14.4827 12.7439 14.3077 12.9189 14.3077 13.1348V17.2785C14.3077 17.4944 14.4827 17.6694 14.6986 17.6694C14.9145 17.6694 15.0895 17.4944 15.0895 17.2785V13.1348C15.0895 12.9189 14.9145 12.7439 14.6986 12.7439ZM7.66219 12.7439C7.44627 12.7439 7.27126 12.9189 7.27126 13.1348V17.2785C7.27126 17.4944 7.44627 17.6694 7.66219 17.6694C7.87808 17.6694 8.0531 17.4944 8.0531 17.2785V13.1348C8.0531 12.9189 7.87808 12.7439 7.66219 12.7439ZM5.3167 12.7439C5.1008 12.7439 4.92578 12.9189 4.92578 13.1348V17.2785C4.92578 17.4944 5.1008 17.6694 5.3167 17.6694C5.53261 17.6694 5.70761 17.4944 5.70761 17.2785V13.1348C5.70761 12.9189 5.53261 12.7439 5.3167 12.7439ZM10.0077 10.3984C9.79187 10.3984 9.61673 10.5736 9.61673 10.7893C9.61673 11.0051 9.79187 11.1803 10.0077 11.1803C10.2234 11.1803 10.3986 11.0051 10.3986 10.7893C10.3986 10.5736 10.2234 10.3984 10.0077 10.3984Z" fill="#C3C3D5"/>
</svg>
