<svg width="16" height="16" viewBox="0 0 16 16" fill="none" xmlns="http://www.w3.org/2000/svg">
<path d="M2.28568 3.38461C2.28568 2.48696 2.6168 1.62607 3.20619 0.99133C3.79558 0.356592 4.59497 0 5.42849 0C6.26202 0 7.0614 0.356592 7.65079 0.99133C8.24018 1.62607 8.5713 2.48696 8.5713 3.38461C8.5713 4.28227 8.24018 5.14316 7.65079 5.7779C7.0614 6.41263 6.26202 6.76923 5.42849 6.76923C4.59497 6.76923 3.79558 6.41263 3.20619 5.7779C2.6168 5.14316 2.28568 4.28227 2.28568 3.38461ZM9.71414 5.23077C9.71414 4.86711 9.78065 4.50701 9.90988 4.17103C10.0391 3.83505 10.2285 3.52977 10.4673 3.27262C10.7061 3.01548 10.9895 2.8115 11.3015 2.67233C11.6135 2.53316 11.9479 2.46154 12.2855 2.46154C12.6232 2.46154 12.9576 2.53316 13.2696 2.67233C13.5815 2.8115 13.865 3.01548 14.1038 3.27262C14.3426 3.52977 14.532 3.83505 14.6612 4.17103C14.7904 4.50701 14.8569 4.86711 14.8569 5.23077C14.8569 5.96521 14.586 6.66957 14.1038 7.18891C13.6215 7.70824 12.9675 7.99999 12.2855 7.99999C11.6036 7.99999 10.9495 7.70824 10.4673 7.18891C9.98505 6.66957 9.71414 5.96521 9.71414 5.23077ZM0 13.8461C2.14536e-08 12.2956 0.571929 10.8087 1.58997 9.71229C2.60801 8.61593 3.98877 7.99999 5.42849 7.99999C6.86822 7.99999 8.24897 8.61593 9.26701 9.71229C10.2851 10.8087 10.857 12.2956 10.857 13.8461V13.8486L10.8562 13.9462C10.8546 14.0506 10.8284 14.1528 10.78 14.2432C10.7316 14.3336 10.6627 14.4093 10.5797 14.4632C9.02478 15.4715 7.24352 16.003 5.42849 16C3.54509 16 1.78207 15.4388 0.278091 14.4632C0.194931 14.4094 0.12584 14.3338 0.0773219 14.2434C0.0288043 14.1529 0.00245736 14.0507 0.000761929 13.9462L0 13.8461ZM11.9998 13.8486L11.9991 13.9668C11.9948 14.2402 11.9342 14.5093 11.8215 14.7544C13.1516 14.8428 14.4801 14.5572 15.6767 13.9257C15.7693 13.877 15.8479 13.8023 15.9042 13.7094C15.9605 13.6165 15.9925 13.509 15.9967 13.3981C16.0236 12.7099 15.885 12.0259 15.5944 11.4123C15.3037 10.7987 14.8709 10.2763 14.3377 9.89579C13.8046 9.51524 13.1892 9.28942 12.5512 9.24018C11.9133 9.19095 11.2743 9.31997 10.6962 9.61476C11.5444 10.8362 12.0015 12.321 11.9991 13.8461L11.9998 13.8486Z" fill="#733168"/>
</svg>
