<svg width="11" height="18" viewBox="0 0 11 18" fill="none" xmlns="http://www.w3.org/2000/svg">
<path d="M4.00195 1H2.31445C1.8669 1 1.43768 1.18061 1.12121 1.5021C0.804743 1.82359 0.626953 2.25963 0.626953 2.71429V15.2857C0.626953 15.7404 0.804743 16.1764 1.12121 16.4979C1.43768 16.8194 1.8669 17 2.31445 17H7.93945C8.38701 17 8.81623 16.8194 9.1327 16.4979C9.44916 16.1764 9.62695 15.7404 9.62695 15.2857V2.71429C9.62695 2.25963 9.44916 1.82359 9.1327 1.5021C8.81623 1.18061 8.38701 1 7.93945 1H6.25195M4.00195 1V2.14286H6.25195V1M4.00195 1H6.25195M4.00195 15.2857H6.25195" stroke="#C3C3D5" stroke-linecap="round" stroke-linejoin="round"/>
</svg>
