<svg width="29" height="29" viewBox="0 0 29 29" fill="none" xmlns="http://www.w3.org/2000/svg">
<path d="M25.0662 1.30923C24.3992 1.30923 23.8579 1.85056 23.8579 2.51756V3.5247C21.2624 1.2615 17.9522 0 14.4244 0C6.47061 0 0 6.49417 0 14.4758C0 15.1428 0.541332 15.6841 1.20833 15.6841C1.87533 15.6841 2.41666 15.1428 2.41666 14.4758C2.41666 7.82636 7.8034 2.41666 14.4244 2.41666C17.3287 2.41666 20.0571 3.44495 22.2079 5.29188H21.1005C20.4335 5.29188 19.8921 5.83322 19.8921 6.50021C19.8921 7.16721 20.4335 7.70855 21.1005 7.70855H25.0662C25.7332 7.70855 26.2745 7.16721 26.2745 6.50021V2.51756C26.2745 1.85056 25.7332 1.30923 25.0662 1.30923Z" fill="#C3C3D5"/>
<path d="M27.7916 13.3145C27.1246 13.3145 26.5833 13.8558 26.5833 14.5228C26.5833 21.1722 21.1966 26.5819 14.5755 26.5819C11.7051 26.5819 9.00572 25.579 6.86698 23.7726H8.02758C8.69458 23.7726 9.23591 23.2312 9.23591 22.5642C9.23591 21.8972 8.69458 21.3559 8.02758 21.3559H4.06124C4.05036 21.3559 4.04069 21.3589 4.03042 21.3589C3.98451 21.3601 3.93919 21.3662 3.89328 21.3728C3.85944 21.3776 3.82561 21.3807 3.79238 21.3885C3.75251 21.3976 3.71324 21.4121 3.67397 21.4254C3.63772 21.4381 3.60086 21.4489 3.56582 21.4646C3.53259 21.4797 3.50117 21.4991 3.46915 21.5172C3.43109 21.539 3.39363 21.5601 3.35799 21.5855C3.34892 21.5921 3.33865 21.5957 3.32959 21.603C3.30905 21.6187 3.29334 21.638 3.27401 21.655C3.24199 21.6827 3.20997 21.7105 3.18097 21.742C3.15378 21.771 3.13022 21.8012 3.10665 21.832C3.08309 21.8628 3.06013 21.8936 3.03899 21.9262C3.01784 21.9601 2.99972 21.9951 2.9822 22.0301C2.96468 22.0646 2.94836 22.0996 2.93447 22.1359C2.92057 22.1733 2.9097 22.2108 2.89943 22.2495C2.88976 22.2863 2.87949 22.3232 2.87345 22.3612C2.8662 22.4041 2.86318 22.447 2.86016 22.4905C2.85834 22.5153 2.85291 22.5395 2.85291 22.5648V26.5475C2.85291 27.2145 3.39424 27.7558 4.06124 27.7558C4.72823 27.7558 5.26957 27.2145 5.26957 26.5475V25.5869C7.84512 27.7794 11.1058 28.9986 14.5755 28.9986C22.5294 28.9986 29 22.5044 29 14.5228C29 13.8558 28.4586 13.3145 27.7916 13.3145Z" fill="#C3C3D5"/>
</svg>
