<svg width="18" height="21" viewBox="0 0 18 21" fill="none" xmlns="http://www.w3.org/2000/svg">
<path d="M8.6 2.586C8.535 2.796 8.5 3.019 8.5 3.25C8.5 3.664 8.836 4 9.25 4H13.75C14.1642 4 14.5 3.66421 14.5 3.25C14.5001 3.02491 14.4664 2.80108 14.4 2.586M8.6 2.586C8.89154 1.64321 9.76316 1.00023 10.75 1H12.25C13.262 1 14.117 1.668 14.4 2.586M8.6 2.586C8.224 2.609 7.85 2.636 7.476 2.666C6.345 2.76 5.5 3.723 5.5 4.858V7M14.4 2.586C14.776 2.609 15.15 2.636 15.524 2.666C16.655 2.76 17.5 3.723 17.5 4.858V15.25C17.5 16.4926 16.4926 17.5 15.25 17.5H13M5.5 7H2.125C1.504 7 1 7.504 1 8.125V19.375C1 19.996 1.504 20.5 2.125 20.5H11.875C12.496 20.5 13 19.996 13 19.375V17.5M5.5 7H11.875C12.496 7 13 7.504 13 8.125V17.5M4.75 14.5L6.25 16L9.25 12.25" stroke="#C3C3D5" stroke-linecap="round" stroke-linejoin="round"/>
</svg>
