<svg width="19" height="20" viewBox="0 0 19 20" fill="none" xmlns="http://www.w3.org/2000/svg">
<path d="M7.18803 1.94C7.23171 1.67795 7.36672 1.43982 7.56915 1.26777C7.77158 1.09573 8.02836 1.00087 8.29403 1H10.894C11.1604 0.999925 11.4181 1.09435 11.6214 1.26648C11.8246 1.43861 11.9602 1.67728 12.004 1.94L12.217 3.221C12.2523 3.40513 12.3287 3.57894 12.4403 3.72955C12.552 3.88015 12.6961 4.00369 12.862 4.091C12.936 4.131 13.009 4.174 13.082 4.218C13.2403 4.31836 13.4192 4.38165 13.6053 4.40312C13.7915 4.42459 13.9801 4.4037 14.157 4.342L15.374 3.886C15.6234 3.79221 15.898 3.78998 16.1489 3.87971C16.3998 3.96945 16.6107 4.14531 16.744 4.376L18.044 6.623C18.1771 6.8537 18.224 7.12413 18.1764 7.38617C18.1288 7.6482 17.9897 7.88485 17.784 8.054L16.784 8.881C16.642 9.00315 16.5295 9.15583 16.4549 9.32762C16.3802 9.49941 16.3454 9.68585 16.353 9.873C16.353 9.95767 16.353 10.0427 16.353 10.128C16.3455 10.3147 16.3803 10.5008 16.4548 10.6722C16.5292 10.8436 16.6414 10.996 16.783 11.118L17.783 11.946C17.9883 12.1152 18.1271 12.3517 18.1747 12.6134C18.2222 12.8752 18.1756 13.1453 18.043 13.376L16.743 15.623C16.6099 15.8536 16.3992 16.0296 16.1485 16.1195C15.8979 16.2094 15.6234 16.2074 15.374 16.114L14.157 15.658C13.9799 15.5964 13.7912 15.5755 13.6048 15.597C13.4185 15.6184 13.2395 15.6817 13.081 15.782C13.0084 15.826 12.935 15.8687 12.861 15.91C12.6953 15.9972 12.5514 16.1206 12.4399 16.271C12.3284 16.4215 12.2522 16.5951 12.217 16.779L12.004 18.059C11.9604 18.3219 11.8249 18.5608 11.6217 18.7331C11.4184 18.9055 11.1605 19 10.894 19H8.29403C8.02768 19.0001 7.76994 18.9056 7.56668 18.7335C7.36342 18.5614 7.22783 18.3227 7.18403 18.06L6.97403 16.779C6.93909 16.5949 6.86303 16.421 6.75152 16.2704C6.64001 16.1197 6.49593 15.9962 6.33003 15.909C6.25603 15.8683 6.18269 15.826 6.11003 15.782C5.95157 15.6817 5.77251 15.6184 5.5862 15.597C5.3999 15.5755 5.21115 15.5964 5.03403 15.658L3.81703 16.114C3.56775 16.2075 3.29339 16.2096 3.04273 16.1199C2.79206 16.0302 2.58134 15.8545 2.44803 15.624L1.14803 13.377C1.01497 13.1463 0.968073 12.8759 1.01568 12.6138C1.06329 12.3518 1.20232 12.1152 1.40803 11.946L2.40803 11.119C2.54972 10.9967 2.66198 10.8439 2.73643 10.6722C2.81088 10.5004 2.84561 10.314 2.83803 10.127C2.83803 10.0423 2.83803 9.95733 2.83803 9.872C2.84553 9.68525 2.81075 9.49923 2.73629 9.3278C2.66184 9.15638 2.54962 9.00399 2.40803 8.882L1.40803 8.054C1.20257 7.88489 1.0637 7.64843 1.0161 7.38662C0.968496 7.12481 1.01524 6.8546 1.14803 6.624L2.44803 4.377C2.58121 4.14614 2.79204 3.97006 3.04294 3.88014C3.29384 3.79021 3.56851 3.79229 3.81803 3.886L5.03403 4.342C5.21115 4.40364 5.3999 4.4245 5.5862 4.40303C5.77251 4.38156 5.95157 4.31831 6.11003 4.218C6.18203 4.174 6.25603 4.131 6.33003 4.09C6.496 4.00315 6.64015 3.87985 6.75168 3.72935C6.86321 3.57885 6.93923 3.40506 6.97403 3.221L7.18803 1.94Z" stroke="#C3C3D5" stroke-linecap="round" stroke-linejoin="round"/>
<path d="M12.594 10C12.594 10.5933 12.418 11.1734 12.0884 11.6667C11.7588 12.1601 11.2902 12.5446 10.742 12.7716C10.1939 12.9987 9.59067 13.0581 9.00872 12.9424C8.42678 12.8266 7.89223 12.5409 7.47268 12.1213C7.05312 11.7018 6.7674 11.1672 6.65164 10.5853C6.53588 10.0033 6.59529 9.40013 6.82236 8.85195C7.04942 8.30377 7.43394 7.83524 7.92728 7.50559C8.42063 7.17595 9.00065 7 9.594 7C10.3896 7 11.1527 7.31607 11.7153 7.87868C12.2779 8.44129 12.594 9.20435 12.594 10Z" stroke="#C3C3D5" stroke-linecap="round" stroke-linejoin="round"/>
</svg>
