<svg width="17" height="18" viewBox="0 0 17 18" fill="none" xmlns="http://www.w3.org/2000/svg">
<path d="M13.681 11.0727C12.6924 11.0727 11.8212 11.559 11.2741 12.2986L6.54338 9.87622C6.62193 9.60851 6.67712 9.33106 6.67712 9.0383C6.67712 8.64121 6.59571 8.2637 6.45507 7.91648L11.406 4.93724C11.9569 5.58387 12.7668 6.0033 13.681 6.0033C15.3362 6.0033 16.6826 4.65686 16.6826 3.00165C16.6826 1.34644 15.3362 0 13.681 0C12.0258 0 10.6793 1.34644 10.6793 3.00165C10.6793 3.38309 10.7579 3.74492 10.8882 4.08084L5.92254 7.06881C5.37204 6.4414 4.57387 6.03665 3.67548 6.03665C2.02027 6.03665 0.673828 7.38309 0.673828 9.0383C0.673828 10.6935 2.02027 12.0399 3.67548 12.0399C4.68036 12.0399 5.56621 11.5394 6.11131 10.7791L10.8264 13.1935C10.7396 13.4739 10.6793 13.7659 10.6793 14.0744C10.6793 15.7296 12.0258 17.076 13.681 17.076C15.3362 17.076 16.6826 15.7296 16.6826 14.0744C16.6826 12.4192 15.3362 11.0727 13.681 11.0727Z" fill="#3569B0"/>
</svg>
