<svg width="15" height="17" viewBox="0 0 15 17" fill="none" xmlns="http://www.w3.org/2000/svg">
<path d="M3.78816 7.90021C3.40176 7.20495 2.59423 6.8588 1.82427 7.05839C1.0543 7.25797 0.516602 7.95281 0.516602 8.74822C0.516601 9.54364 1.0543 10.2385 1.82426 10.4381C2.59423 10.6376 3.40176 10.2915 3.78815 9.59624M3.78816 7.90021C3.92781 8.15159 4.00772 8.44021 4.00772 8.74822C4.00772 9.05624 3.92781 9.34564 3.78815 9.59624M3.78816 7.90021L11.21 3.77729M3.78815 9.59624L11.21 13.7192M11.21 3.77729C11.678 4.62023 12.7407 4.92388 13.5835 4.45567C14.4263 3.98745 14.73 2.92468 14.2618 2.08189C13.7937 1.23903 12.7309 0.935376 11.8881 1.40359C11.0453 1.87181 10.7418 2.93451 11.21 3.77729ZM11.21 13.7192C10.7417 14.5622 11.0455 15.6253 11.8885 16.0937C12.7316 16.562 13.7947 16.2582 14.263 15.4152C14.7314 14.5721 14.4276 13.509 13.5845 13.0407C12.7415 12.5723 11.6784 12.8761 11.21 13.7192Z" stroke="#733168" stroke-linecap="round" stroke-linejoin="round"/>
</svg>
