<svg width="12" height="14" viewBox="0 0 12 14" fill="none" xmlns="http://www.w3.org/2000/svg">
<path d="M6.01645 0.773438C3.74946 0.773438 1.90711 2.61578 1.90711 4.88275V6.86206C1.90711 7.27984 1.72904 7.91679 1.51673 8.27293L0.729109 9.58106C0.242841 10.3892 0.578434 11.2864 1.46879 11.5878C4.42064 12.574 7.60538 12.574 10.5572 11.5878C11.386 11.3138 11.7489 10.3344 11.2969 9.58106L10.5093 8.27293C10.3038 7.91679 10.1258 7.27984 10.1258 6.86206V4.88275C10.1258 2.62263 8.27657 0.773438 6.01645 0.773438Z" fill="#733168"/>
<path d="M7.28408 0.972331C7.07176 0.910691 6.8526 0.862749 6.62659 0.835354C5.9691 0.753167 5.339 0.80111 4.75 0.972331C4.94862 0.465515 5.44173 0.109375 6.01704 0.109375C6.59234 0.109375 7.08546 0.465515 7.28408 0.972331Z" fill="#733168"/>
<path d="M8.07024 11.834C8.07024 12.964 7.14564 13.8886 6.01558 13.8886C5.45397 13.8886 4.93346 13.6558 4.56364 13.2859C4.1938 12.9161 3.96094 12.3956 3.96094 11.834" fill="#733168"/>
</svg>
