<svg width="14" height="16" viewBox="0 0 14 16" fill="none" xmlns="http://www.w3.org/2000/svg">
<path fill-rule="evenodd" clip-rule="evenodd" d="M3.43018 3.42857H8.86103C9.54236 3.42958 10.1954 3.70094 10.6768 4.18307C11.1583 4.6652 11.4287 5.31867 11.4287 6V13.1429C12.0349 13.1429 12.6162 12.902 13.0449 12.4734C13.4736 12.0447 13.7144 11.4634 13.7144 10.8571V3.51086C13.7144 2.36419 12.8572 1.36914 11.6847 1.27086C11.5138 1.25698 11.3429 1.24428 11.1719 1.23276C10.979 0.861172 10.6878 0.549688 10.33 0.332298C9.97222 0.114907 9.5616 -3.9111e-05 9.14294 9.98253e-09H8.00008C7.58142 -3.9111e-05 7.17079 0.114907 6.813 0.332298C6.45521 0.549688 6.16399 0.861172 5.97113 1.23276C5.7997 1.24419 5.62827 1.25714 5.45837 1.27086C4.31399 1.36762 3.46979 2.31771 3.43018 3.42857ZM8.00008 1.14286C7.69698 1.14286 7.40629 1.26327 7.19196 1.47759C6.97763 1.69192 6.85722 1.98261 6.85722 2.28571H10.2858C10.2858 1.98261 10.1654 1.69192 9.95106 1.47759C9.73673 1.26327 9.44604 1.14286 9.14294 1.14286H8.00008Z" fill="#733168"/>
<path fill-rule="evenodd" clip-rule="evenodd" d="M0 6.00084C0 5.2115 0.64 4.57227 1.42857 4.57227H8.85714C9.64648 4.57227 10.2857 5.21227 10.2857 6.00084V14.5723C10.2857 15.3608 9.64571 16.0008 8.85714 16.0008H1.42857C1.04969 16.0008 0.686328 15.8503 0.418419 15.5824C0.15051 15.3145 0 14.9511 0 14.5723V6.00084ZM7.30362 9.50103C7.39839 9.38261 7.44224 9.2314 7.42552 9.08066C7.4088 8.92992 7.33289 8.79199 7.21448 8.69722C7.09606 8.60245 6.94485 8.5586 6.79411 8.57532C6.64337 8.59203 6.50544 8.66795 6.41067 8.78636L4.52419 11.1452L3.83238 10.4542C3.72406 10.3532 3.58078 10.2983 3.43274 10.3009C3.28471 10.3035 3.14346 10.3635 3.03876 10.4682C2.93407 10.5729 2.8741 10.7141 2.87149 10.8622C2.86887 11.0102 2.92382 11.1535 3.02476 11.2618L4.16762 12.4046C4.22446 12.4615 4.29264 12.5057 4.36772 12.5343C4.44279 12.563 4.52308 12.5755 4.60332 12.5711C4.68356 12.5666 4.76197 12.5453 4.8334 12.5085C4.90484 12.4716 4.96771 12.4202 5.01791 12.3574L7.30362 9.50103Z" fill="#733168"/>
</svg>
