<svg width="16" height="16" viewBox="0 0 16 16" fill="none" xmlns="http://www.w3.org/2000/svg">
<path fill-rule="evenodd" clip-rule="evenodd" d="M0 8C0 3.58154 3.58154 0 8 0C12.4185 0 16 3.58154 16 8C16 12.4185 12.4185 16 8 16C3.58154 16 0 12.4185 0 8ZM7.14338 6.81682C8.08369 6.34667 9.14297 7.19672 8.88779 8.21662L8.30605 10.5436L8.34051 10.5272C8.4851 10.4636 8.64859 10.4581 8.79715 10.5117C8.94571 10.5654 9.06795 10.6741 9.13859 10.8153C9.20922 10.9566 9.22284 11.1196 9.17661 11.2706C9.13038 11.4217 9.02786 11.5491 8.89026 11.6267L8.85744 11.6447C7.91631 12.1149 6.85703 11.2648 7.11221 10.2449L7.69477 7.91795L7.66031 7.93436C7.58772 7.9747 7.50773 7.99993 7.42513 8.00853C7.34254 8.01714 7.25906 8.00894 7.17972 7.98442C7.10038 7.95991 7.02682 7.9196 6.96347 7.8659C6.90012 7.81221 6.8483 7.74625 6.81112 7.672C6.77393 7.59775 6.75217 7.51674 6.74712 7.43385C6.74208 7.35096 6.75386 7.26791 6.78176 7.1897C6.80966 7.11149 6.8531 7.03973 6.90947 6.97875C6.96584 6.91777 7.03396 6.86883 7.10974 6.83487L7.14338 6.81682ZM8 5.53846C8.16321 5.53846 8.31974 5.47363 8.43514 5.35822C8.55055 5.24281 8.61539 5.08629 8.61539 4.92308C8.61539 4.75987 8.55055 4.60334 8.43514 4.48793C8.31974 4.37253 8.16321 4.30769 8 4.30769C7.83679 4.30769 7.68026 4.37253 7.56486 4.48793C7.44945 4.60334 7.38462 4.75987 7.38462 4.92308C7.38462 5.08629 7.44945 5.24281 7.56486 5.35822C7.68026 5.47363 7.83679 5.53846 8 5.53846Z" fill="#733168"/>
</svg>
