<svg width="13" height="16" viewBox="0 0 13 16" fill="none" xmlns="http://www.w3.org/2000/svg">
<path fill-rule="evenodd" clip-rule="evenodd" d="M2.95417 3.42857C2.95417 2.51926 3.32774 1.64719 3.99272 1.0042C4.65769 0.361223 5.55959 0 6.5 0C7.44041 0 8.34231 0.361223 9.00728 1.0042C9.67225 1.64719 10.0458 2.51926 10.0458 3.42857C10.0458 4.33788 9.67225 5.20995 9.00728 5.85293C8.34231 6.49591 7.44041 6.85714 6.5 6.85714C5.55959 6.85714 4.65769 6.49591 3.99272 5.85293C3.32774 5.20995 2.95417 4.33788 2.95417 3.42857ZM9.40854e-05 14.1752C0.0266644 12.5253 0.723161 10.9517 1.93924 9.79396C3.15532 8.63626 4.79344 7.98738 6.5 7.98738C8.20656 7.98738 9.84468 8.63626 11.0608 9.79396C12.2768 10.9517 12.9733 12.5253 12.9999 14.1752C13.002 14.2863 12.9705 14.3955 12.9093 14.4896C12.8482 14.5836 12.76 14.6584 12.6556 14.7047C10.7244 15.5609 8.62447 16.0028 6.5 16C4.30474 16 2.219 15.5367 0.344434 14.7047C0.240018 14.6584 0.151836 14.5836 0.09068 14.4896C0.0295236 14.3955 -0.00195559 14.2863 9.40854e-05 14.1752Z" fill="#733168"/>
</svg>
