<svg width="14" height="17" viewBox="0 0 14 17" fill="none" xmlns="http://www.w3.org/2000/svg">
<path fill-rule="evenodd" clip-rule="evenodd" d="M6.25561 16.1417L6.31182 16.1738L6.3343 16.1867C6.42347 16.2349 6.52323 16.2601 6.6246 16.2601C6.72596 16.2601 6.82573 16.2349 6.91489 16.1867L6.93738 16.1746L6.99439 16.1417C7.30847 15.9555 7.61494 15.7567 7.91306 15.5459C8.68483 15.001 9.40593 14.3877 10.0676 13.7133C11.6287 12.1153 13.25 9.71426 13.25 6.625C13.25 4.86794 12.552 3.18285 11.3096 1.94042C10.0672 0.697989 8.38206 0 6.625 0C4.86794 0 3.18285 0.697989 1.94042 1.94042C0.697989 3.18285 0 4.86794 0 6.625C0 9.71345 1.62212 12.1153 3.18241 13.7133C3.84382 14.3876 4.56464 15.001 5.33614 15.5459C5.63452 15.7567 5.94125 15.9555 6.25561 16.1417ZM6.625 9.03409C7.26393 9.03409 7.87669 8.78028 8.32848 8.32848C8.78028 7.87669 9.03409 7.26393 9.03409 6.625C9.03409 5.98607 8.78028 5.37331 8.32848 4.92152C7.87669 4.46972 7.26393 4.21591 6.625 4.21591C5.98607 4.21591 5.37331 4.46972 4.92152 4.92152C4.46972 5.37331 4.21591 5.98607 4.21591 6.625C4.21591 7.26393 4.46972 7.87669 4.92152 8.32848C5.37331 8.78028 5.98607 9.03409 6.625 9.03409Z" fill="#733168"/>
</svg>
