<svg width="22" height="21" viewBox="0 0 22 21" fill="none" xmlns="http://www.w3.org/2000/svg">
<path d="M1 10.2841L9.95 1.3291C10.1611 1.11836 10.4472 1 10.7455 1C11.0438 1 11.3299 1.11836 11.541 1.3291L20.5 10.2841M3.25 8.0341V18.1591C3.25 18.4575 3.36853 18.7436 3.5795 18.9546C3.79048 19.1656 4.07663 19.2841 4.375 19.2841H8.5V14.4091C8.5 14.1107 8.61853 13.8246 8.8295 13.6136C9.04048 13.4026 9.32663 13.2841 9.625 13.2841H11.875C12.1734 13.2841 12.4595 13.4026 12.6705 13.6136C12.8815 13.8246 13 14.1107 13 14.4091V19.2841H17.125C17.4234 19.2841 17.7095 19.1656 17.9205 18.9546C18.1315 18.7436 18.25 18.4575 18.25 18.1591V8.0341M7 19.2841H15.25" stroke="#C3C3D5" stroke-width="1.5" stroke-linecap="round" stroke-linejoin="round"/>
</svg>
