<svg width="92" height="96" viewBox="0 0 92 96" fill="none" xmlns="http://www.w3.org/2000/svg">
<path d="M88.5959 33.2718C88.1174 32.2139 86.5497 32.8316 86.9219 33.9243C88.5854 38.5109 89.4189 43.3664 89.4135 48.2028C89.5015 67.821 75.2006 85.1975 55.8188 88.6031C37.2067 92.0322 18.1708 81.4668 11.6567 63.6996C3.9454 42.9756 15.2399 19.9761 36.6374 13.8776C41.7825 12.4682 47.2809 12.1398 52.5249 12.9979C56.837 13.6825 60.9622 15.1717 64.7241 17.2913C68.0826 18.9557 72.1573 17.5877 73.8249 14.2358C75.5041 10.8656 74.1016 6.76998 70.7102 5.12627C60.41 -0.0111729 48.353 -1.32449 37.2037 1.35518C11.4112 7.51568 -4.78169 33.2966 1.2678 59.0453C8.53008 90.0685 44.4945 105.18 71.4542 87.8071C89.4842 76.2561 96.9308 53.0038 88.5959 33.2718Z" fill="#E53C3C"/>
<path d="M37.5923 30.8336C35.7367 28.9677 33.8435 27.1846 31.6357 25.6947C29.3035 23.9327 25.908 25.5193 25.8609 28.4658C25.819 31.5384 26.6283 34.4288 27.7704 37.1997C30.0297 42.5368 33.9715 46.8016 37.9716 50.8364C38.1201 50.9826 38.2719 51.1252 38.4211 51.2707C33.6968 57.0967 29.9505 63.7116 29.3498 71.3198C29.1521 74.413 32.8099 76.1502 35.1246 74.0909C37.0772 72.527 38.7212 70.7663 40.4459 68.9972C43.2747 66.056 45.8263 62.9265 48.3796 59.7887C53.5797 63.6902 59.1402 67.1003 64.9713 69.9658C66.8303 70.8716 68.7164 71.7156 70.6463 72.4667C71.2965 72.7216 71.9335 72.9515 72.628 73.1885C73.3976 73.4496 74.2852 73.2688 74.8902 72.6491C75.729 71.7901 75.711 70.4149 74.8505 69.578C72.1056 66.9431 68.8987 64.0055 66.1473 61.377C62.6091 58.0399 59.1066 54.654 55.6974 51.1841C65.9934 39.862 77.7309 29.4964 89.2692 19.451C91.049 17.8406 89.3207 14.9933 87.0658 15.8161C83.8614 17.0486 80.81 18.5145 77.7743 20.0918C66.637 25.9533 56.2776 33.2982 47.1353 41.9911C43.8724 38.2789 41.1153 34.3125 37.5923 30.8336Z" fill="#E53C3C"/>
</svg>
